<?xml version="1.0" standalone="no"?>
<!DOCTYPE svg PUBLIC "-//W3C//DTD SVG 20010904//EN"
 "http://www.w3.org/TR/2001/REC-SVG-20010904/DTD/svg10.dtd">
<svg version="1.0" xmlns="http://www.w3.org/2000/svg"
 width="1920.000000pt" height="1920.000000pt" viewBox="0 0 1920.000000 1920.000000"
 preserveAspectRatio="xMidYMid meet">

<g transform="translate(0.000000,1920.000000) scale(0.100000,-0.100000)"
fill="#000000" stroke="none">
<path d="M9548 17378 c-35 -62 -199 -347 -365 -633 -165 -286 -352 -610 -415
-720 -64 -110 -141 -243 -171 -295 l-55 -95 -148 -31 c-558 -118 -1013 -275
-1504 -520 -258 -129 -407 -214 -640 -368 -702 -463 -1276 -1037 -1743 -1743
-161 -242 -242 -384 -382 -668 -179 -362 -294 -661 -404 -1045 -49 -173 -138
-567 -129 -575 2 -1 258 144 569 323 l566 326 68 171 c347 869 916 1628 1651
2201 853 664 1906 1048 2967 1081 l207 6 0 1349 c0 741 -2 1348 -4 1348 -3 0
-33 -51 -68 -112z"/>
<path d="M10714 15614 c4 -11 149 -267 322 -571 l316 -552 51 -17 c106 -35
388 -159 567 -250 549 -278 1014 -628 1447 -1089 851 -906 1344 -2087 1391
-3335 l7 -175 1328 -3 c744 -1 1326 2 1323 7 -3 4 -47 32 -98 61 -164 94 -850
490 -953 550 -55 32 -215 124 -355 205 -140 81 -289 167 -330 191 l-76 43 -32
158 c-229 1135 -798 2204 -1622 3047 -477 488 -1004 874 -1608 1179 -494 250
-945 410 -1477 526 -222 48 -209 46 -201 25z"/>
<path d="M9370 14163 c-1304 -75 -2503 -693 -3320 -1711 -556 -694 -895 -1535
-981 -2437 -17 -167 -17 -662 -1 -830 139 -1450 934 -2725 2177 -3490 149 -92
459 -249 629 -320 733 -302 1552 -409 2351 -304 1205 157 2306 800 3044 1778
437 579 741 1282 855 1978 51 311 60 427 60 773 0 346 -9 462 -60 773 -108
663 -396 1347 -801 1904 -200 276 -483 585 -718 785 -555 471 -1180 796 -1865
968 -438 110 -932 158 -1370 133z m-1025 -954 c-58 -346 -98 -556 -106 -564
-8 -7 -306 -256 -662 -553 l-648 -539 -331 -6 c-182 -4 -445 -7 -585 -7 l-253
0 34 68 c53 104 156 277 243 408 483 719 1172 1280 1968 1600 135 54 392 143
416 143 14 1 3 -79 -76 -550z m2857 426 c691 -269 1332 -741 1805 -1330 96
-120 223 -296 223 -309 0 -3 -58 -6 -130 -6 l-130 0 -122 83 c-68 46 -213 146
-323 222 -110 76 -348 240 -530 365 -181 125 -355 245 -386 266 -48 34 -90 86
-305 387 -275 385 -269 377 -255 377 6 0 75 -25 153 -55z m596 -1177 c186
-128 485 -334 664 -458 204 -140 329 -233 332 -245 3 -11 28 -139 55 -285 28
-146 82 -429 121 -630 95 -497 125 -659 119 -664 -19 -18 -996 -679 -1004
-679 -5 0 -174 112 -375 250 -201 138 -511 350 -690 472 -179 122 -336 231
-350 244 -22 19 -28 38 -43 142 -10 66 -40 257 -67 425 -27 168 -72 449 -100
625 -28 176 -53 332 -56 346 -5 25 3 32 98 92 57 35 292 184 522 331 230 146
423 266 428 266 5 0 161 -105 346 -232z m-3173 -84 c99 -25 254 -66 345 -89
91 -24 271 -71 400 -104 129 -34 352 -91 495 -128 l260 -68 32 -195 c17 -107
59 -368 92 -580 34 -212 75 -470 92 -574 26 -157 29 -191 17 -201 -14 -13
-805 -699 -1158 -1004 -124 -106 -237 -205 -252 -219 l-27 -24 -168 51 c-92
28 -247 75 -343 104 -96 29 -380 116 -630 192 -250 76 -458 141 -463 145 -7 6
-50 373 -142 1215 -25 226 -48 420 -50 432 -5 20 81 95 642 563 385 320 654
538 663 535 8 -2 96 -25 195 -51z m4685 -2646 c57 -101 206 -364 332 -585
l229 -402 -41 -166 c-49 -197 -136 -461 -209 -634 -52 -124 -166 -358 -202
-418 -15 -24 -162 -117 -646 -408 -344 -207 -629 -372 -634 -368 -11 12 -420
635 -425 648 -3 6 52 220 121 476 70 255 142 520 160 589 215 796 205 762 224
781 9 9 117 85 241 169 124 84 281 192 350 239 269 184 384 261 390 261 4 0
53 -82 110 -182z m-5771 -409 c163 -49 375 -115 471 -144 96 -30 323 -99 504
-155 181 -55 331 -101 332 -103 1 -1 122 -319 267 -707 146 -388 282 -748 302
-799 20 -52 35 -103 33 -112 -2 -14 -877 -971 -921 -1008 -14 -11 -64 6 -797
276 -96 36 -204 75 -240 88 -36 13 -171 62 -300 110 -129 48 -253 93 -276 101
-29 10 -45 24 -56 47 -8 18 -151 335 -317 705 l-302 672 138 157 c76 86 257
292 402 457 407 463 445 506 455 506 5 0 142 -41 305 -91z m-1866 -742 l284
-338 138 -307 c76 -169 209 -467 297 -662 88 -195 175 -388 193 -428 l33 -74
-35 -86 c-19 -48 -38 -91 -42 -95 -12 -13 -232 235 -363 408 -401 532 -692
1189 -803 1810 -8 50 -18 104 -21 120 l-6 30 20 -20 c11 -11 148 -172 305
-358z m6012 -1648 c110 -166 209 -317 219 -335 l19 -33 -175 -188 c-97 -103
-325 -348 -507 -543 -325 -349 -332 -355 -389 -373 -252 -79 -608 -144 -912
-167 -149 -11 -551 -12 -590 -1 -18 5 -103 114 -317 406 -160 220 -292 403
-292 407 -1 7 808 889 903 985 l41 42 540 31 c297 17 680 39 850 49 171 10
333 19 360 20 l50 1 200 -301z"/>
<path d="M1734 9609 c-9 -15 -15 -10 226 -149 118 -68 256 -147 305 -176 50
-29 263 -152 475 -274 212 -123 471 -272 575 -332 105 -61 208 -121 231 -134
40 -23 41 -25 58 -111 208 -1072 713 -2091 1440 -2908 106 -120 389 -402 501
-501 749 -660 1614 -1121 2555 -1358 220 -56 428 -101 435 -95 2 2 -47 90
-107 194 -61 105 -200 345 -310 535 -264 455 -232 411 -314 440 -121 42 -404
169 -569 254 -1194 618 -2102 1673 -2533 2941 -165 484 -255 976 -269 1473
l-6 212 -1343 0 c-956 0 -1345 -3 -1350 -11z"/>
<path d="M15384 8361 c-144 -86 -401 -239 -572 -341 l-311 -185 -32 -85 c-425
-1110 -1239 -2063 -2268 -2654 -732 -421 -1554 -657 -2378 -683 l-203 -6 0
-1356 0 -1355 66 114 c36 63 92 160 124 215 32 55 148 255 257 445 110 190
297 514 416 721 l217 376 113 22 c976 194 1911 634 2677 1260 1008 823 1717
1923 2055 3186 46 171 109 460 103 475 -2 4 -121 -63 -264 -149z"/>
</g>
</svg>
